<?xml version="1.0" encoding="utf-8" ?>
<svg xmlns="http://www.w3.org/2000/svg" xmlns:xlink="http://www.w3.org/1999/xlink" width="1024" height="1024">
	<defs>
		<linearGradient id="gradient_0" gradientUnits="userSpaceOnUse" x1="210.83623" y1="430.79236" x2="302.06851" y2="91.84639">
			<stop offset="0" stop-color="#424DF1"/>
			<stop offset="1" stop-color="#1CC7FA"/>
		</linearGradient>
	</defs>
	<path fill="url(#gradient_0)" transform="scale(2 2)" d="M305.35 95.9114C307.69 92.2285 318.196 80.0438 321.532 77.2331C328.367 71.475 333.622 78.3579 338.191 83.1372C349.625 95.0969 359.701 108.779 368.753 122.616C371.199 126.355 372.988 130.563 375.666 134.14C380.916 141.152 387.373 146.436 392.653 154.329C396.935 158.079 400.031 164.447 403.063 169.239C446.586 238.022 438.425 326.937 379.769 384.726C317.98 445.603 223.613 455.269 153.05 403.981C76.5404 348.371 58.6074 242.622 112.476 164.804C116.152 159.493 120.179 153.635 124.804 149.109C128.91 142.516 137.069 136.171 142.944 131.074C174.212 103.945 205.174 93.4272 245.242 88.7118L245.242 88.7118C265.528 87.8118 285.9 90.0452 305.35 95.9114ZM317.261 104.069C304.015 124.003 282.323 153.442 279.378 176.22C278.707 181.413 279.425 186.899 280.469 192.005C286.254 220.316 311.687 237.524 340.114 231.379C366.984 225.57 379.09 196.274 374.477 171.177C373.215 166.846 372.342 162.495 370.758 158.246C361.365 133.045 343.739 112.126 326.764 91.7898C323.615 95.8825 320.648 100.171 317.261 104.069ZM100.354 298.709C107.353 330.214 121.394 355.411 144.826 377.592C196.249 426.268 268.334 435.172 330.114 403.044C366.901 383.398 399.663 347.257 409.976 306.164C403.164 310.216 396.461 314.353 389.227 317.624C353.343 333.85 310.705 327.964 280.55 302.768C248.312 275.83 230.356 249.65 180.791 252.474C148.626 256.512 118.959 271.015 100.354 298.709ZM97.1243 280.593C102.053 275.841 105.309 271.862 110.905 267.103C135.635 246.073 167.982 235.03 200.422 238.547C236.921 242.505 257.281 261.619 282.102 285.086C318.46 319.462 365.835 320.522 405.33 291.484C408.484 289.165 411.981 286.866 414.66 284.01C421.611 256.193 410.869 214.91 397.998 190.459C395.973 186.61 393.195 180.256 390.322 177.243C391.765 208.352 374.322 239.577 342.175 245.959C298.796 254.571 258.327 217.561 264.808 174.16C267.871 153.644 285.387 125.748 296.96 108.597C276.213 101.364 252.574 102.448 231.057 105.01C189.664 113.904 161.143 128.799 132.83 161.935C131.954 163.369 130.636 164.737 129.584 166.061C106.63 194.967 90.0109 243.401 97.1243 280.593Z"/>
	<path fill="#3586F5" transform="scale(2 2)" d="M315.144 136.942C325.832 148.143 338.938 167.459 339.225 182.751C339.472 195.936 328.519 203.191 316.2 203.277C304.616 203.371 291.804 194.965 291.707 182.478C291.596 168.103 305.191 146.975 315.144 136.942Z"/>
	<path fill="#1CC2F8" transform="scale(2 2)" d="M305.35 95.9114C307.69 92.2285 318.196 80.0438 321.532 77.2331C328.367 71.475 333.622 78.3579 338.191 83.1372C349.625 95.0969 359.701 108.779 368.753 122.616C371.199 126.355 372.988 130.563 375.666 134.14C380.916 141.152 387.373 146.436 392.653 154.329C390.955 154.27 390.267 151.575 388.566 150.847C386.867 150.12 385.68 150.573 384.46 149.083L384.325 149.276C382.502 151.839 378.835 156.672 375.664 156.391L375.895 156.536L375.626 156.425C375.277 158.03 375 158.998 373.827 160.188C371.347 162.703 375.161 168.165 374.865 171.143L374.477 171.177C373.215 166.846 372.342 162.495 370.758 158.246C361.365 133.045 343.739 112.126 326.764 91.7898C323.615 95.8825 320.648 100.171 317.261 104.069C317.183 100.853 324.301 99.2132 318.008 96.223C313.42 94.0431 308.904 96.7897 307.752 94.807C306.317 94.695 306.597 95.9936 305.509 96.1926C302.29 96.7818 287.635 94.5585 286.065 93.1332L286.145 92.3096C285.346 92.0271 284.633 92.598 283.737 92.353L283.951 91.86C282.367 91.4149 280.786 93.4421 279.266 93.755C277.579 94.1024 275.508 92.4823 271.646 92.9987C269.778 93.2483 269.201 91.5915 267.92 90.7171C265.507 89.07 265.811 92.2771 264.27 92.183C260.504 91.953 260.305 87.7277 258.806 92.3215L258.445 92.4893C256.497 92.2978 253.118 92.6626 252.381 90.486C250.171 91.8519 247.548 90.2754 245.726 89.4898L245.437 89.3681L245.242 88.7118C265.528 87.8118 285.9 90.0452 305.35 95.9114Z"/>
	<path fill="#1CC2F8" transform="scale(2 2)" d="M124.804 149.109C128.91 142.516 137.069 136.171 142.944 131.074C174.212 103.945 205.174 93.4272 245.242 88.7118C243.679 89.6646 243.157 90.1864 244.203 91.8546C242.335 93.1269 231.125 95.7303 228.68 92.5917L228.247 92.5582L228.009 92.791C225.251 95.4337 220.966 96.0239 218.497 98.6809C215.743 101.645 214.045 98.7847 209.638 99.1704C207.533 99.3547 206.076 99.6762 204.194 98.5474C199.875 102.429 196.428 102.255 193.603 105.037L193.228 104.682C191.786 105.586 189.304 105.815 189.057 103.779L188.745 103.628C184.315 105.811 181.329 106.645 176.765 109.242C172.592 111.616 165.718 115.84 161.726 117.568C157.462 119.415 138.47 135.674 134.839 139.122C132.983 140.884 126.589 148.955 124.804 149.109Z"/>
	<path fill="#3586F5" transform="scale(2 2)" d="M185.028 267.041C203.47 265.176 220.657 273.402 236.023 282.642C235.303 287.318 234.394 293.151 231.145 296.806C222.499 306.533 209.322 306.242 198.152 302.054C165.163 289.685 142.813 328.322 166.664 348.143C183.435 362.081 192.189 350.677 204.604 349.703C219.33 348.548 232.776 364.827 222.345 376.532C214.774 383.385 212.369 390.962 213.313 401.243C165.849 386.205 129.672 350.273 116.715 302.324C129.392 282.628 162.15 267.64 185.028 267.041Z"/>
	<defs>
		<linearGradient id="gradient_1" gradientUnits="userSpaceOnUse" x1="233.72809" y1="405.25153" x2="260.94818" y2="297.1322">
			<stop offset="0" stop-color="#3B72F4"/>
			<stop offset="1" stop-color="#3592F7"/>
		</linearGradient>
	</defs>
	<path fill="url(#gradient_1)" transform="scale(2 2)" d="M248.948 292.852C258.692 302.564 265.682 308.894 276.272 317.234C277.524 320.427 277.665 324.242 277.762 327.63C278.16 341.462 272.917 337.11 265.72 344.908C250.509 361.389 266.398 391.052 291.323 389.078C300.123 388.381 313.574 384.548 320.919 391.214L320.874 391.497C303.038 401.871 271.826 407.279 251.697 406.94C247.723 406.873 243.782 406.633 239.811 406.934C236.025 405.748 232.084 405.52 228.289 404.47C223.364 387.049 234.985 388.757 239.035 375.54C246.07 352.587 222.746 332.029 200.442 336.176C193.613 337.446 187.381 342.287 180.241 340.018C168.664 336.341 167.678 320.656 179.1 315.253C191.615 309.332 204.007 327.117 229.608 315.014C239.765 310.212 245.248 303.235 248.948 292.852Z"/>
	<path fill="#3586F5" transform="scale(2 2)" d="M291.48 327.272C293.883 328.326 296.215 329.621 298.599 330.732C319.829 340.629 358.94 346.36 381.196 335.76C375.611 348.385 363.004 360.77 352.906 369.953C347.056 375.002 340.92 380.167 334.282 384.148C309.816 362.51 290.726 382.349 278.668 370.902C275.899 368.274 274.268 364.817 274.178 360.995C273.853 347.281 292.372 355.24 291.48 327.272Z"/>
	<path fill="#1CC2F8" transform="scale(2 2)" d="M132.83 161.935C132.72 159.325 141.899 150.828 144.113 148.726C161.161 132.539 180.832 119.723 203.008 111.66C207 110.209 219.504 105.66 223.336 105.759L223.111 105.806L222.89 105.618L223.173 105.162C226.123 105.392 229.346 104.457 230.876 104.629L231.057 105.01C189.664 113.904 161.143 128.799 132.83 161.935Z"/>
</svg>
